<svg width="248" height="33" viewBox="0 0 248 33" fill="none" xmlns="http://www.w3.org/2000/svg">
<path d="M18.8572 26.5216L29.4515 33L26.6401 20.79L36.0001 12.5747L23.6744 11.5153L18.8572 0L14.0401 11.5153L1.71436 12.5747L11.0744 20.79L8.26293 33L18.8572 26.5216Z" fill="#FF9800"/>
<path d="M71.8572 26.5216L82.4515 33L79.6401 20.79L89.0001 12.5747L76.6744 11.5153L71.8572 0L67.0401 11.5153L54.7144 12.5747L64.0744 20.79L61.2629 33L71.8572 26.5216Z" fill="#FF9800"/>
<path d="M124.857 26.5216L135.451 33L132.64 20.79L142 12.5747L129.674 11.5153L124.857 0L120.04 11.5153L107.714 12.5747L117.074 20.79L114.263 33L124.857 26.5216Z" fill="#FF9800"/>
<path d="M177.857 26.5216L188.451 33L185.64 20.79L195 12.5747L182.674 11.5153L177.857 0L173.04 11.5153L160.714 12.5747L170.074 20.79L167.263 33L177.857 26.5216Z" fill="#FF9800"/>
<path d="M230.857 26.5216L241.451 33L238.64 20.79L248 12.5747L235.674 11.5153L230.857 0L226.04 11.5153L213.714 12.5747L223.074 20.79L220.263 33L230.857 26.5216Z" fill="#FF9800"/>
</svg>
