<svg width="50" height="52" viewBox="0 0 50 52" fill="none" xmlns="http://www.w3.org/2000/svg">
<path d="M16.1919 5.91863L18.4335 5.19379C20.5356 4.51531 22.7815 5.6131 23.6815 7.75813L25.4731 12.0313C26.2523 13.8919 25.819 16.0812 24.4023 17.4424L20.4544 21.2309C20.6981 23.4981 21.4523 25.7296 22.7148 27.9252C23.9137 30.0494 25.5218 31.9087 27.444 33.3931L32.1856 31.7917C33.9815 31.187 35.9398 31.8844 37.0398 33.5216L39.6085 37.3355C40.8898 39.2403 40.6585 41.8657 39.069 43.4798L37.3669 45.2097C35.671 46.9312 33.2481 47.557 31.0085 46.849C25.7169 45.1802 20.8565 40.2264 16.419 31.9876C11.9752 23.7363 10.4065 16.7323 11.7148 10.9841C12.2648 8.56515 13.9669 6.63715 16.1919 5.91863Z" fill="#DADADA"/>
</svg>
