<svg width="50" height="52" viewBox="0 0 50 52" fill="none" xmlns="http://www.w3.org/2000/svg">
<path d="M39.5832 9.36365H10.4165C8.7589 9.36365 7.16919 10.0296 5.99709 11.2151C4.82498 12.4006 4.1665 14.0084 4.1665 15.6849V36.7559C4.1665 38.4324 4.82498 40.0403 5.99709 41.2257C7.16919 42.4112 8.7589 43.0772 10.4165 43.0772H39.5832C41.2408 43.0772 42.8305 42.4112 44.0026 41.2257C45.1747 40.0403 45.8332 38.4324 45.8332 36.7559V15.6849C45.8332 14.0084 45.1747 12.4006 44.0026 11.2151C42.8305 10.0296 41.2408 9.36365 39.5832 9.36365ZM39.5832 13.5778L26.0415 22.9966C25.7248 23.1815 25.3655 23.2789 24.9998 23.2789C24.6341 23.2789 24.2749 23.1815 23.9582 22.9966L10.4165 13.5778H39.5832Z" fill="#DADADA"/>
</svg>
