<svg width="21" height="17" viewBox="0 0 21 17" fill="none" xmlns="http://www.w3.org/2000/svg">
<path fill-rule="evenodd" clip-rule="evenodd" d="M1.75 0.630615C1.19772 0.630615 0.75 1.07833 0.75 1.63062C0.75 2.1829 1.19772 2.63062 1.75 2.63062H4.10459L6.39476 12.5488C5.53001 12.8167 4.9 13.6439 4.9 14.6229C4.9 15.8188 5.8402 16.7883 7 16.7883C8.1598 16.7883 9.1 15.8188 9.1 14.6229C9.1 14.406 9.06906 14.1965 9.01148 13.9989H16.5385C16.4809 14.1965 16.45 14.406 16.45 14.6229C16.45 15.8188 17.3902 16.7883 18.55 16.7883C19.7098 16.7883 20.65 15.8188 20.65 14.6229C20.65 13.7804 20.1834 13.0503 19.5022 12.6924C19.3727 12.29 18.9954 11.9989 18.55 11.9989H8.32041L5.87436 1.40563C5.76961 0.951959 5.36561 0.630615 4.9 0.630615H1.75ZM9.31389 2.71331C8.66863 2.71331 8.19229 3.31535 8.3407 3.94331L9.6592 9.52214C9.76584 9.97339 10.1687 10.2921 10.6324 10.2921H18.0676C18.5313 10.2921 18.9342 9.97339 19.0408 9.52214L20.3593 3.94331C20.5077 3.31535 20.0314 2.71331 19.3861 2.71331H9.31389ZM7.0492 14.7617C7.07585 14.7342 7.1 14.6889 7.1 14.6229C7.1 14.5569 7.07585 14.5116 7.0492 14.4841C7.03584 14.4703 7.02428 14.4637 7.01788 14.4609C7.01302 14.4588 7.00852 14.4575 7 14.4575C6.99148 14.4575 6.98698 14.4588 6.98212 14.4609C6.97572 14.4637 6.96416 14.4703 6.9508 14.4841C6.92415 14.5116 6.9 14.5569 6.9 14.6229C6.9 14.6889 6.92415 14.7342 6.9508 14.7617C6.96416 14.7755 6.97572 14.7821 6.98212 14.7849C6.98698 14.787 6.99148 14.7883 7 14.7883C7.00852 14.7883 7.01302 14.787 7.01788 14.7849C7.02428 14.7821 7.03584 14.7755 7.0492 14.7617ZM18.65 14.6229C18.65 14.6889 18.6258 14.7342 18.5992 14.7617C18.5858 14.7755 18.5743 14.7821 18.5679 14.7849C18.563 14.787 18.5585 14.7883 18.55 14.7883C18.5415 14.7883 18.537 14.787 18.5321 14.7849C18.5257 14.7821 18.5142 14.7755 18.5008 14.7617C18.4742 14.7342 18.45 14.6889 18.45 14.6229C18.45 14.5569 18.4742 14.5116 18.5008 14.4841C18.5142 14.4703 18.5257 14.4637 18.5321 14.4609C18.537 14.4588 18.5415 14.4575 18.55 14.4575C18.5585 14.4575 18.563 14.4588 18.5679 14.4609C18.5743 14.4637 18.5858 14.4703 18.5992 14.4841C18.6258 14.5116 18.65 14.5569 18.65 14.6229Z" fill="#EAEAEA"/>
</svg>
