<svg width="38" height="52" viewBox="0 0 38 52" fill="none" xmlns="http://www.w3.org/2000/svg">
<g clip-path="url(#clip0_166_98)">
<path d="M16.6547 50.0433C11.4891 43.6177 0 28.0442 0 19.2966C0 8.68332 8.50646 0.079834 19 0.079834C29.4896 0.079834 38 8.68332 38 19.2966C38 28.0442 26.4219 43.6177 21.3453 50.0433C20.1281 51.5747 17.8719 51.5747 16.6547 50.0433ZM19 25.7021C22.4932 25.7021 25.3333 22.8296 25.3333 19.2966C25.3333 15.7635 22.4932 12.891 19 12.891C15.5068 12.891 12.6667 15.7635 12.6667 19.2966C12.6667 22.8296 15.5068 25.7021 19 25.7021Z" fill="#DADADA"/>
</g>
<defs>
<clipPath id="clip0_166_98">
<rect width="38" height="51.2446" fill="white" transform="translate(0 0.079834)"/>
</clipPath>
</defs>
</svg>
